<svg xmlns="http://www.w3.org/2000/svg"><symbol id="53048"><g class="hand">
                            <path d="M41.041 64.847C41.0918 64.9415 41.1763 65.0266 41.1935 65.1307C41.4329 66.1522 41.9463 67.0723 42.3059 68.0479C42.8303 69.4368 43.4605 70.7717 44.0795 72.1097C44.6891 73.4141 45.3434 74.7059 45.9306 76.0167C46.3511 76.9509 46.8101 77.85 47.3445 78.7158C47.917 79.6314 48.339 80.6136 48.9115 81.5291C49.1787 81.962 49.4683 82.3886 49.6633 82.866C47.9219 83.1268 46.1884 83.3733 44.4438 83.6228C44.1481 83.561 44.0306 83.3158 43.953 83.0835C43.5481 81.8183 42.9975 80.594 42.6343 79.3049C42.4605 78.6884 42.3361 78.5903 41.9326 78.704C41.3384 78.8714 41.1455 79.1315 41.3833 79.7179C41.8909 80.9179 42.0653 82.224 42.6817 83.3812C42.7628 83.5399 42.8581 83.7066 42.8046 83.9032L41.2022 84.1853C40.6965 83.8075 40.6107 83.2025 40.3887 82.6722C40.2554 82.3709 40.2087 82.0332 40.109 81.7225C39.9809 81.3109 39.7255 81.1772 39.3107 81.294C38.8959 81.4109 38.7191 81.6422 38.8391 82.0682C38.9876 82.5951 39.1024 83.1314 39.3293 83.6361C39.4261 83.8509 39.5485 84.0705 39.3973 84.3067C38.9055 84.4937 38.3968 84.4918 37.88 84.5043C37.4592 84.514 37.0399 84.5716 36.6111 84.5957C35.691 84.6371 34.7647 84.6561 33.8465 84.6607C33.0385 84.6706 32.2096 84.7347 31.3968 84.7702C31.1568 84.7773 31.0157 84.8776 30.8869 85.1074C29.8618 86.7514 28.3144 87.744 26.5125 88.3485C25.9471 88.532 25.299 88.5937 24.6851 88.4762C23.7675 88.3113 22.8628 88.1064 22.0697 87.5676C21.5016 87.1832 21.0105 86.7287 20.6319 86.1578C20.2532 85.5869 19.7912 85.0637 19.6434 84.3673C19.6072 84.1959 19.4618 84.1522 19.3066 84.1597C18.2219 84.1749 17.2281 83.8257 16.2263 83.4909C15.373 83.211 14.6854 82.703 14.0927 82.0593C12.5072 80.3402 12.4144 78.1642 13.3598 76.4095C13.5499 76.0535 13.5306 76.071 13.1732 75.8329C12.3801 75.2941 11.7393 74.6519 11.2946 73.7608C10.6006 72.3713 10.9444 71.1007 11.5569 69.8392C12.3098 68.2598 13.6568 67.372 15.203 66.7186C15.4289 66.6186 15.5427 66.5503 15.4477 66.2988C15.3305 65.9688 15.5076 65.6527 15.5488 65.3265C15.6001 64.8643 15.5459 64.3714 15.7906 63.9516C16.1914 63.2699 16.506 62.54 17.2037 62.053C17.6384 61.7491 17.9934 61.3344 18.4663 61.0802C19.7854 60.3939 21.1727 60.2934 22.6229 60.5019C23.5311 60.6332 24.4197 60.8668 25.2551 61.2122C26.065 61.5527 26.8731 61.93 27.5747 62.5309C28.0038 62.894 28.4601 63.2252 28.8891 63.5883C28.9991 63.6783 29.1207 63.6804 29.2454 63.6936C30.1505 63.8137 31.0572 63.897 31.9412 64.0714C32.4016 64.1595 32.8739 64.0748 33.3308 64.2365C33.5541 64.4276 33.5227 64.7027 33.5186 64.9458C33.5134 65.9153 33.4971 66.8878 33.5655 67.8607C33.5807 68.0864 33.5332 68.3901 33.8321 68.4632C34.2109 68.5622 34.6215 68.6885 35.0124 68.5299C35.2079 68.4507 35.164 68.2089 35.1502 68.0313C35.1203 67.0234 35.2008 66.0206 35.2557 65.013C35.2629 64.781 35.2383 64.5218 35.4596 64.3626C36.8751 64.4478 38.2626 64.7344 39.6784 64.7348C40.1391 64.7381 40.5736 64.906 41.0361 64.8725L41.041 64.847Z" fill="#36934B"></path>
                            <path d="M42.8157 83.9003C42.4893 83.472 42.3104 82.9658 42.1346 82.4708C41.7926 81.5145 41.4922 80.5344 41.1918 79.5543C41.0213 78.9489 41.1049 78.8165 41.7232 78.6059C41.8129 78.5807 41.8963 78.533 41.9747 78.5109C42.3783 78.3972 42.5556 78.4682 42.6693 78.8718C42.9157 79.7461 43.1988 80.6222 43.5349 81.4713C43.8249 82.2003 43.9837 82.9783 44.4356 83.6375C43.9116 83.8819 43.3816 84.0192 42.8076 83.9147L42.8157 83.9003Z" fill="#EAC93E"></path>
                            <path d="M35.4643 64.3365C35.3573 65.5887 35.2759 66.8458 35.3161 68.105C35.3346 68.7289 35.2881 68.7783 34.69 68.717C34.4181 68.6968 34.1479 68.6398 33.8712 68.6452C33.5912 68.6394 33.4717 68.5157 33.4583 68.2533C33.4197 67.4293 33.3506 66.626 33.3825 65.7943C33.4036 65.268 33.4471 64.7355 33.3355 64.2103C34.0477 64.1185 34.7596 64.1115 35.4643 64.3365Z" fill="#EAC93E"></path>
                            <path d="M39.4118 84.3153C39.1441 83.58 38.8877 82.8416 38.6953 82.073C38.5359 81.4645 38.6245 81.3065 39.2442 81.144C40.0128 80.9516 40.0527 80.9645 40.2819 81.7349C40.5219 82.5868 40.8341 83.3942 41.2392 84.1876C40.7796 84.3171 40.3059 84.3537 39.8354 84.4016C39.6946 84.4171 39.5394 84.4245 39.423 84.3121L39.4118 84.3153Z" fill="#EAC93E"></path>
                          </g></symbol><use xlink:href="#53048"></use></svg>