<svg xmlns="http://www.w3.org/2000/svg"><symbol id="42960"><g class="hand">
                            <path class="" d="M88.1482 36.7219C88.2548 37.2015 88.6367 37.5745 88.69 38.0718C89.3205 39.3418 89.6757 40.7094 90.1553 42.0416C90.5017 43.0096 90.8303 43.9776 90.9812 44.99C91.2299 45.4252 91.2654 45.9137 91.3898 46.3844C91.6651 47.379 91.8161 48.4003 91.9404 49.4216C92.1091 50.7982 92.118 52.1836 92.1624 53.569C92.1624 53.7911 92.0825 54.0397 92.2423 54.244C92.9173 54.0575 93.6278 54.1285 94.3116 54.0575C95.4128 53.942 96.5141 53.8088 97.6153 53.7289C98.8942 53.6312 100.182 53.5957 101.47 53.5246C102.677 53.4536 103.885 53.3381 105.084 53.3115C106.381 53.2937 107.651 53.1072 108.921 52.9474C109.764 52.8408 110.564 52.5477 111.327 52.1392C112.42 51.5531 112.926 50.0344 112.713 49.1819C112.615 48.8 112.411 48.4714 112.224 48.1339C112.136 47.974 112.02 47.8408 111.914 47.6899C111.772 47.4767 111.772 47.3879 111.94 47.2192C112.1 47.0593 112.287 46.9083 112.446 46.7396C112.988 46.1534 113.264 45.4341 113.432 44.6703C113.503 44.3329 113.45 43.9954 113.335 43.6845C113.139 43.1517 112.899 42.6277 112.455 42.2547C112.065 41.9261 111.656 41.6153 111.256 41.2867C111.123 41.1801 111.079 41.0647 111.185 40.887C111.514 40.3897 111.745 39.848 111.896 39.2707C112.153 38.3116 111.789 37.1837 110.99 36.5798C110.724 36.3755 110.439 36.2068 110.155 36.0381C109.951 35.9137 109.72 35.9048 109.489 35.896C108.734 35.8604 107.997 35.9936 107.26 36.0558C106.132 36.1446 105.004 36.269 103.876 36.3666C103.779 36.3755 103.672 36.3666 103.574 36.34C103.486 36.3222 103.459 36.2334 103.477 36.1624C103.503 36.0647 103.557 35.9759 103.61 35.8871C103.885 35.4075 104.036 34.9013 104.027 34.3418C104.027 33.9954 103.912 33.6846 103.743 33.4004C103.637 33.2228 103.512 33.0541 103.388 32.8942C103.29 32.7699 103.201 32.6278 103.068 32.5656C102.447 32.2459 101.807 31.9528 101.088 32.015C100.235 32.0949 99.4093 32.2903 98.7165 32.8498C98.6366 32.912 98.5389 32.9652 98.4501 33.0097C97.6064 33.4182 96.8604 33.9688 96.1233 34.5194C95.5905 34.9191 95.0132 35.1411 94.3915 35.3187C92.5088 35.8516 90.5905 36.2246 88.6722 36.5887C88.4946 36.6242 88.3258 36.6864 88.1482 36.7308V36.7219Z" fill="#E3A9C2"></path><path d="M106.958 38.5598C106.292 39.066 105.866 39.8475 105.635 40.6557C105.475 41.2063 105.413 41.8368 105.715 42.3253C105.999 42.7871 106.567 43.0446 106.754 43.5508C107.011 44.2524 106.399 44.954 106.239 45.6823C106.07 46.4549 106.452 47.3075 107.145 47.6894C107.464 47.867 107.855 47.9558 108.095 48.2311C108.397 48.5775 108.361 49.0837 108.432 49.5366C108.566 50.3714 109.161 51.1263 109.942 51.4638C110.724 51.8012 111.674 51.7036 112.376 51.2329C113.29 50.6112 113.699 49.4744 113.939 48.391C114.285 46.8102 114.391 45.1583 114.116 43.5597C113.832 41.9612 113.157 40.4159 112.065 39.2169C110.777 37.8138 108.583 37.3342 106.967 38.5598H106.958Z" fill="#E3A9C2"></path>
                            <path d="M107.864 42.9209C107.908 42.9209 107.953 42.9386 107.979 42.9297C108.104 42.912 108.228 42.9031 108.352 42.8676C108.939 42.7077 109.525 42.5479 110.111 42.388C110.182 42.3702 110.244 42.3436 110.315 42.3081C110.422 42.2548 110.493 42.1837 110.466 42.0594C110.448 41.9706 110.439 41.8818 110.413 41.8019C110.324 41.5532 110.209 41.4999 109.96 41.571C109.32 41.7486 108.681 41.9262 108.05 42.1038C107.944 42.1305 107.846 42.166 107.748 42.2193C107.624 42.2814 107.58 42.3969 107.624 42.539C107.66 42.6367 107.713 42.7344 107.766 42.8321C107.793 42.8765 107.837 42.9031 107.864 42.9386V42.9209Z" fill="#CA6391"></path>
                            <path d="M111.63 48.2675C111.63 48.2142 111.63 48.1254 111.612 48.0366C111.585 47.8945 111.505 47.8057 111.363 47.8057C111.168 47.8057 110.973 47.8057 110.777 47.8323C110.369 47.8856 109.96 47.9478 109.552 47.9389C109.463 47.9389 109.374 47.9478 109.285 47.9744C109.17 48.001 109.001 47.9655 108.948 48.0987C108.877 48.2764 108.948 48.4451 109.063 48.5961C109.125 48.676 109.214 48.676 109.312 48.6671C109.862 48.6227 110.422 48.5872 110.973 48.5428C111.132 48.5339 111.292 48.5161 111.452 48.4984C111.55 48.4806 111.603 48.4096 111.647 48.2852L111.63 48.2675Z" fill="#CA6391"></path>
                          </g></symbol><use xlink:href="#42960"></use></svg>